<svg id="visual" viewBox="0 0 900 600" width="900" height="600" xmlns="http://www.w3.org/2000/svg" xmlns:xlink="http://www.w3.org/1999/xlink" version="1.1"><rect x="0" y="0" width="900" height="600" fill="#002233"></rect><path d="M0 374L21.5 379.2C43 384.3 86 394.7 128.8 409.5C171.7 424.3 214.3 443.7 257.2 458.2C300 472.7 343 482.3 385.8 472.3C428.7 462.3 471.3 432.7 514.2 414.7C557 396.7 600 390.3 642.8 397.3C685.7 404.3 728.3 424.7 771.2 445.8C814 467 857 489 878.5 500L900 511L900 601L878.5 601C857 601 814 601 771.2 601C728.3 601 685.7 601 642.8 601C600 601 557 601 514.2 601C471.3 601 428.7 601 385.8 601C343 601 300 601 257.2 601C214.3 601 171.7 601 128.8 601C86 601 43 601 21.5 601L0 601Z" fill="#0066FF" stroke-linecap="round" stroke-linejoin="miter"></path></svg>