<svg viewBox="0 0 400 300" xmlns="http://www.w3.org/2000/svg"><path d="m350.88 99.98-44.24 64.48-1.87-14.51-129.78 85.71-3.45-42.11-97.79 58.11-11.59-28.99 135.01-70.99 3.95 38.11 99.97-68.46-1.53-11.84z" fill="#e6e6e6"/><path d="m323.54 137.55-.58.38.44-.71z" fill="#e6e6e6"/><ellipse cx="186.33" cy="264.16" fill="#e6e6e6" opacity=".45" rx="137.21" ry="8.24"/><path d="m285.54 144.12a6.71 6.71 0 0 1 -3.36 10.3c-4.71 1.59-12.24 2.74-22.45 0-18.58-5-25.06-35.92-25.06-35.92s-3.5-5.2-.88-7.43 4.75 5.91 4.75 5.91 3.84 14.83 17.71 20.25c11.27 4.4 23.9-.55 29.29 6.89z" fill="#f4a28c"/><path d="m285.54 144.12a6.71 6.71 0 0 1 -3.36 10.3c-4.71 1.59-12.24 2.74-22.45 0-18.58-5-25.06-35.92-25.06-35.92s-3.5-5.2-.88-7.43 4.75 5.91 4.75 5.91 3.84 14.83 17.71 20.25c11.27 4.4 23.9-.55 29.29 6.89z" opacity=".09"/><path d="m290.18 209.92-18 47.89-3.54-.2 6.18-50.06z" fill="#f4a28c"/><path d="m302.76 204.7-4.19 19.72 13.79-9.63 2.37 3.1s-14.22 20.5-24.54 17.47-1.92-34.94-1.92-34.94z" fill="#f4a28c"/><path d="m285.28 122.32 3.64 16.33-9.15 1.36 1.03-12.43z" fill="#f4a28c"/><path d="m280.46 130.29a6 6 0 0 0 2.87-2s.06 3.06-3.11 6.29z" fill="#ce8172" opacity=".31"/><path d="m275.89 122.25a31.87 31.87 0 0 0 1.42 8.36 2.57 2.57 0 0 0 3.33 1.47 5.67 5.67 0 0 0 3.89-4.76l1-4.61a4.59 4.59 0 0 0 -2.59-4.63c-3.11-1.71-7.3 1.06-7.05 4.17z" fill="#f4a28c"/><path d="m281.8 126s-.19-2 1.29-2 1.78 2.8-.18 3.3z" fill="#f4a28c"/><path d="m276.16 125.46-1.16 2.12a.82.82 0 0 0 .66 1.22l2 .13z" fill="#f4a28c"/><path d="m279.77 140s-22.26 8.4-16.21 23.73c4.38 11.1 10.23 9.06 11.7 17.91l1.55 8.71 22.65-6.76s-2.66-12.75-1.19-21.21 5.95-29.5-18.5-22.38z" fill="#68e1fd"/><path d="m285.73 144.93s-8.64 12.11-1 24.48c1.29 2.09 2.43 4.29 3.53 6.49l4.8 9.62 6.42-1.92-.89-5.35z" opacity=".09"/><path d="m283.09 124s-3.94 15.78 1.34 17.92 13.87.3 14.1-6.23-6.23-7.21-7.56-16.1-18.33-5.81-17.77-.67 9.89 5.08 9.89 5.08z" fill="#ffd200"/><path d="m299.46 183.6-22.65 6.76-4.23 26.64 30.36-.39s7.79-20-3.48-33.01z" fill="#24285b"/><path d="m268.9 257.62s-2.09 2.37-4.58 2.1-3.06 3.25 1 3.11a22.78 22.78 0 0 0 3.74-.42 6.51 6.51 0 0 1 3.38.31 1.1 1.1 0 0 0 1.17-.39c1.22-1.28-1.41-4.52-1.41-4.52z" fill="#68e1fd"/><path d="m314.41 218s3.15.11 4.54 2.2 4.45.28 1.77-2.74a20.93 20.93 0 0 0 -2.71-2.61 6.7 6.7 0 0 1 -1.92-2.81 1.06 1.06 0 0 0 -1-.65c-1.76-.13-2.69 3.44-2.69 3.44z" fill="#68e1fd"/><path d="m116 257.71s1.58 2.55 4.12 2.22 3.7 2 1.6 3.09-8.49-.53-8.49-.53l-.77-4.6z" fill="#68e1fd"/><path d="m131.25 150.51s25.16-16.14 34.67-32.86l-3.2-3.52s-21.63 19.14-40.59 22.44z" fill="#f4a28c"/><path d="m165.92 117.65c.05 0 2-2.45 2.07-2.62a7.75 7.75 0 0 0 1.42-3.69 4.23 4.23 0 0 0 -2.48-3.64 1.72 1.72 0 0 0 -2 .14 2.09 2.09 0 0 0 -.39.72 15.63 15.63 0 0 0 -.53 1.73 6.37 6.37 0 0 0 -.44-1.27c-.08-.17-.19-.36-.38-.39a.42.42 0 0 0 -.43.25 1.3 1.3 0 0 0 -.1.52c-.05 1-.12 2-.15 3a7.87 7.87 0 0 0 .15 1.07c0 .13 0 .56.1.67z" fill="#f4a28c"/><path d="m97.14 157.55c9.13 3.11 24 4.71 39.89-7.89l-4.27-18.19s-25.55 3.53-38 14a7.07 7.07 0 0 0 2.38 12.08z" fill="#68e1fd"/><path d="m97.14 157.55c9.13 3.11 24 4.71 39.89-7.89l-4.27-18.19s-25.55 3.53-38 14a7.07 7.07 0 0 0 2.38 12.08z" fill="#fff" opacity=".46"/><path d="m112.55 119.77a27.13 27.13 0 0 1 1.48 7.15 2.22 2.22 0 0 1 -2.21 2.22 4.89 4.89 0 0 1 -4.61-2.6l-2.21-3.39a3.94 3.94 0 0 1 .63-4.52c1.93-2.35 6.16-1.43 6.92 1.14z" fill="#f4a28c"/><path d="m105.38 123.76 1.36 14.34 7.85-1.32-4.14-9.9z" fill="#f4a28c"/><path d="m111.54 120.22a31.27 31.27 0 0 1 -4 .71 3.67 3.67 0 0 1 1 3.9 3 3 0 0 1 -3.2 2 12.26 12.26 0 0 1 -.47-1.94c-.26-.74-.66-1.56-1.49-1.75a7.82 7.82 0 0 1 -1.54-.19 1.22 1.22 0 0 1 -.48-1.77c.3-.4.87-.68.85-1.17s-.49-.68-.8-1a2.15 2.15 0 0 1 -.34-2.32 5.42 5.42 0 0 1 1.56-1.91.6.6 0 0 0 .26-.37c0-.23-.21-.38-.36-.55a1.29 1.29 0 0 1 0-1.53 3 3 0 0 1 1.32-1 13.87 13.87 0 0 1 4.37-1 3.93 3.93 0 0 1 2 .16 1.54 1.54 0 0 1 1 1.53c-.09.62-.69 1.15-.57 1.77s.92.87 1.57.88a2.63 2.63 0 0 1 1.87.41c.67.65.13 1.92-.76 2.21a1.37 1.37 0 0 0 -.49.22c-.26.24-.15.69.06 1a2.42 2.42 0 0 1 .53.93c.11.82-1.19.62-1.66.7z" fill="#ffd200"/><path d="m109 124.58s-.45-1.63-1.65-1.18-.56 2.8 1.17 2.59z" fill="#f4a28c"/><path d="m113.34 122.43 1.61 1.34a.7.7 0 0 1 -.15 1.17l-1.55.73z" fill="#f4a28c"/><path d="m111.45 129a5.22 5.22 0 0 1 -2.88-.84 8.24 8.24 0 0 0 4.22 4.31z" fill="#ce8172" opacity=".31"/><path d="m86.32 146.34a21.92 21.92 0 0 1 23.31-10.85l3.47.64s24.51 3.59 23 26.17a76.78 76.78 0 0 1 -14.25 38.7l-33.09-3.76s-12.51-32.24-2.44-50.9z" fill="#68e1fd"/><path d="m117 258 4.85-57-33.09-3.76-10.93 61.3h6.17l20.69-39.77c.24-2.08 6.63 39.77 6.63 39.77z" fill="#24285b"/><path d="m103.28 146.38s2.2 17.27-1.94 33.05 0 19.28 0 19.28l-12.58-1.43s-2.76-7-3.26-10.55-.2-42.39 17.78-40.35z" opacity=".08"/><path d="m87.42 156.27c6.77 6.87 19.36 14.95 39.2 10.78l-2.54-21.93s-17.57-4.51-33.37-.66a7.06 7.06 0 0 0 -3.29 11.81z" fill="#68e1fd"/><path d="m87.42 156.27c6.77 6.87 19.36 14.95 39.2 10.78l-2.54-21.93s-17.57-4.51-33.37-.66a7.06 7.06 0 0 0 -3.29 11.81z" fill="#fff" opacity=".46"/><path d="m126.38 165s29.73-3.18 45.71-13.88l-1.29-4.58s-27.9 7.44-46.34 1.92z" fill="#f4a28c"/><path d="m172.09 151.1a33.18 33.18 0 0 0 4.1-2.13 5.6 5.6 0 0 0 2.08-2.47 4.73 4.73 0 0 0 -.73-3.79 1.41 1.41 0 0 0 -1.52-.64 2.14 2.14 0 0 0 -.8.6c-.54.59-1.08 1.18-1.61 1.78a6.86 6.86 0 0 0 -.2-1.63c0-.11-.08-.25-.2-.26a.31.31 0 0 0 -.2.07c-1.41.94-3.09 2.79-2.64 4.38.33 1.19 1.39 2.91 1.72 4.09z" fill="#f4a28c"/><path d="m78.78 258.46s-1.59 2.55-4.12 2.22-3.71 2-1.6 3.09 8.49-.53 8.49-.53l.77-4.6z" fill="#68e1fd"/><path d="m293.64 142.76a6.72 6.72 0 0 1 3.8 10.15c-2.69 4.18-7.85 9.78-17.54 14-17.63 7.69-42-12.44-42-12.44s-6-1.88-5.33-5.25 7.4 1.65 7.4 1.65 12.26 9.19 26.47 4.77c11.56-3.58 18.35-15.33 27.2-12.88z" fill="#f4a28c"/><path d="m156.21 87.44a9.23 9.23 0 0 0 12.7 3.79c9.54-5.36 25.41-12.24 30.76-23.7 6.94-14.86-23.33-34.37-23.33-34.37l-4.37 5s39.23 24.7-10.08 34.38c-6.28 1.24-8.65 9.26-5.68 14.93z" fill="#68e1fd"/><path d="m156.21 87.44a9.23 9.23 0 0 0 12.7 3.79c9.54-5.36 25.41-12.24 30.76-23.7 6.94-14.86-23.33-34.37-23.33-34.37l-4.37 5s39.23 24.7-10.08 34.38c-6.28 1.24-8.65 9.26-5.68 14.93z" fill="#fff" opacity=".46"/><path d="m243.82 93.79s2.13-1.34 1.85-3.47 1.65-3.14 2.59-1.37-.4 7.16-.4 7.16l-3.88.67z" fill="#68e1fd"/><path d="m246.92 138.87s2.35.92 3.9-.58 3.5-.55 2.64 1.27-6 3.93-6 3.93l-2.85-2.71z" fill="#68e1fd"/><path d="m138.78 69a26.79 26.79 0 0 1 5.22 5 2.17 2.17 0 0 1 -.58 3 4.82 4.82 0 0 1 -5.2.45l-3.7-1.53a3.88 3.88 0 0 1 -2-4c.26-3 4.21-4.6 6.26-2.92z" fill="#f4a28c"/><path d="m135.15 76.22 9.08 10.93 5.67-5.43-8.88-5.77z" fill="#f4a28c"/><path d="m138.21 69.91a17.24 17.24 0 0 1 -2.87 2.81 3.6 3.6 0 0 1 3 2.61 3 3 0 0 1 -1.46 3.45l-4.14-3.73a4.39 4.39 0 0 1 -1.48-4.27 14.83 14.83 0 0 1 .54-2c.57-1.63 2.93-2.69 3.06-4.49a1 1 0 0 1 1.61-.79c1.44.93 3.24 2.91 2.43 5.25a4.08 4.08 0 0 1 -.69 1.16z" fill="#24285b"/><path d="m138.53 74.9s-1.27-1.08-2-.05 1.1 2.59 2.39 1.46z" fill="#f4a28c"/><path d="m140.9 70.72 2 .19a.69.69 0 0 1 .53 1l-.85 1.45z" fill="#f4a28c"/><path d="m143 77.13a5.16 5.16 0 0 1 -2.81.91 8.12 8.12 0 0 0 5.81 1.17z" fill="#ce8172" opacity=".31"/><path d="m144.23 87.15 3.86-3.7a34.22 34.22 0 0 0 2.66-2.85c2.65-3.22 11.33-12.06 24.15-7.86 15.54 5.08 24.42 35.26 24.42 35.26l-17.73 20.35s-61.59-11.5-37.36-41.2z" fill="#68e1fd"/><path d="m172.79 37.19s-6.87-3.07-7.41-6 5.3 1.55 5.3 1.55 2.74-5.18 5.66.39z" fill="#f4a28c"/><path d="m171.2 33.69s-4.7-5-3.19-6 5.15 4.77 5.15 4.77z" fill="#f4a28c"/><path d="m181.59 128.33s13.09 10.92 20.92.79 9.18-33.79 41.62-31.6l-.26-5.37s-25.47-9.93-45.87 11.92z" fill="#24285b"/><path d="m192.05 132.73s25-17.35 50.3 9.81l4.57-3.67s-15-29.65-53.39-25.27z" fill="#24285b"/><path d="m157.14 94s5.88 3 9.6 14 22.92 8.47 22.92 8.47l-8.07 11.92s-19.91-4.22-30.65-11.11 5.92-22.61 5.92-22.61z" opacity=".08"/><path d="m144.32 110.67c14.57 6.17 47.4 14.5 54.49-31.52l-6.54-2.55s-13 30.83-38.48 16.75a24.85 24.85 0 0 0 -2.94-1.42c-4.53-1.8-15.82-5.21-15.68 5.44a14.8 14.8 0 0 0 9.15 13.3z" fill="#68e1fd"/><path d="m144.32 110.67c14.57 6.17 47.4 14.5 54.49-31.52l-6.54-2.55s-13 30.83-38.48 16.75a24.85 24.85 0 0 0 -2.94-1.42c-4.53-1.8-15.82-5.21-15.68 5.44a14.8 14.8 0 0 0 9.15 13.3z" fill="#fff" opacity=".46"/><path d="m193.43 77.05a12.59 12.59 0 0 1 3-6.11c2.37-2.36 4.79-2 6.13-.16s-4.56 4.89-4.56 4.89l-.12 3.11z" fill="#f4a28c"/><g fill="#e6e6e6"><path d="m86.46 99h16.32v4.37h-16.32z" opacity=".5" transform="matrix(.86198328 -.50693671 .50693671 .86198328 -38.24 61.94)"/><path d="m262.34 90.23h16.32v4.37h-16.32z" opacity=".5" transform="matrix(-.96717912 .25409557 -.25409557 -.96717912 555.59 113.06)"/><path d="m224.16 64.51h11.67v3.12h-11.67z" opacity=".5" transform="matrix(-.95148706 -.30768877 .30768877 -.95148706 428.52 199.7)"/><path d="m262.81 64.51h11.67v3.12h-11.67z" opacity=".5" transform="matrix(.42720006 -.90415712 .90415712 .42720006 94.14 280.74)"/><path d="m207.02 147.88h11.67v3.12h-11.67z" opacity=".5" transform="matrix(.42720006 -.90415712 .90415712 .42720006 -13.19 278.06)"/><path d="m299.73 75.56h11.67v3.12h-11.67z" opacity=".5" transform="matrix(-.99058129 -.1369259 .1369259 -.99058129 597.68 195.38)"/><path d="m113 79.99h11.67v3.12h-11.67z" opacity=".5" transform="matrix(-.96325638 -.2685836 .2685836 -.96325638 211.41 192.01)"/><path d="m150.59 54.39h11.67v3.12h-11.67z" opacity=".5" transform="matrix(-.97985505 .19970998 -.19970998 -.97985505 320.88 79.53)"/><path d="m94 57.46h11.67v3.12h-11.67z" opacity=".5" transform="matrix(-.97985505 .19970998 -.19970998 -.97985505 209.45 96.92)"/></g></svg>